<?xml version="1.0" encoding="utf-8"?>
<svg xmlns="http://www.w3.org/2000/svg" xmlns:xlink="http://www.w3.org/1999/xlink" width="200" height="200" viewBox="0 0 800 800">
<defs>
  <clipPath id="clip990">
    <rect x="0" y="0" width="800" height="800"/>
  </clipPath>
</defs>
<path clip-path="url(#clip990)" d="M0 800 L800 800 L800 0 L0 0  Z" fill="#ffffff" fill-rule="evenodd" fill-opacity="1"/>
<defs>
  <clipPath id="clip991">
    <rect x="160" y="79" width="561" height="561"/>
  </clipPath>
</defs>
<path clip-path="url(#clip990)" d="M244.852 611.499 L705.512 611.499 L705.512 94.4882 L244.852 94.4882  Z" fill="#ffffff" fill-rule="evenodd" fill-opacity="1"/>
<defs>
  <clipPath id="clip992">
    <rect x="244" y="94" width="462" height="518"/>
  </clipPath>
</defs>
<polyline clip-path="url(#clip992)" style="stroke:#000000; stroke-linecap:round; stroke-linejoin:round; stroke-width:2; stroke-opacity:0.1; fill:none" points="269.31,611.499 269.31,94.4882 "/>
<polyline clip-path="url(#clip992)" style="stroke:#000000; stroke-linecap:round; stroke-linejoin:round; stroke-width:2; stroke-opacity:0.1; fill:none" points="459.014,611.499 459.014,94.4882 "/>
<polyline clip-path="url(#clip992)" style="stroke:#000000; stroke-linecap:round; stroke-linejoin:round; stroke-width:2; stroke-opacity:0.1; fill:none" points="648.718,611.499 648.718,94.4882 "/>
<polyline clip-path="url(#clip992)" style="stroke:#000000; stroke-linecap:round; stroke-linejoin:round; stroke-width:2; stroke-opacity:0.1; fill:none" points="269.31,611.499 269.31,94.4882 "/>
<polyline clip-path="url(#clip992)" style="stroke:#000000; stroke-linecap:round; stroke-linejoin:round; stroke-width:2; stroke-opacity:0.1; fill:none" points="459.014,611.499 459.014,94.4882 "/>
<polyline clip-path="url(#clip992)" style="stroke:#000000; stroke-linecap:round; stroke-linejoin:round; stroke-width:2; stroke-opacity:0.1; fill:none" points="648.718,611.499 648.718,94.4882 "/>
<polyline clip-path="url(#clip990)" style="stroke:#000000; stroke-linecap:round; stroke-linejoin:round; stroke-width:4; stroke-opacity:1; fill:none" points="244.852,611.499 705.512,611.499 "/>
<polyline clip-path="url(#clip990)" style="stroke:#000000; stroke-linecap:round; stroke-linejoin:round; stroke-width:4; stroke-opacity:1; fill:none" points="244.852,94.4882 705.512,94.4882 "/>
<polyline clip-path="url(#clip990)" style="stroke:#000000; stroke-linecap:round; stroke-linejoin:round; stroke-width:4; stroke-opacity:1; fill:none" points="269.31,611.499 269.31,592.601 "/>
<polyline clip-path="url(#clip990)" style="stroke:#000000; stroke-linecap:round; stroke-linejoin:round; stroke-width:4; stroke-opacity:1; fill:none" points="459.014,611.499 459.014,592.601 "/>
<polyline clip-path="url(#clip990)" style="stroke:#000000; stroke-linecap:round; stroke-linejoin:round; stroke-width:4; stroke-opacity:1; fill:none" points="648.718,611.499 648.718,592.601 "/>
<polyline clip-path="url(#clip990)" style="stroke:#000000; stroke-linecap:round; stroke-linejoin:round; stroke-width:4; stroke-opacity:1; fill:none" points="269.31,94.4882 269.31,113.386 "/>
<polyline clip-path="url(#clip990)" style="stroke:#000000; stroke-linecap:round; stroke-linejoin:round; stroke-width:4; stroke-opacity:1; fill:none" points="459.014,94.4882 459.014,113.386 "/>
<polyline clip-path="url(#clip990)" style="stroke:#000000; stroke-linecap:round; stroke-linejoin:round; stroke-width:4; stroke-opacity:1; fill:none" points="648.718,94.4882 648.718,113.386 "/>
<path clip-path="url(#clip990)" d="M234.293 672.824 L241.932 672.824 L241.932 646.458 L233.622 648.125 L233.622 643.866 L241.886 642.199 L246.562 642.199 L246.562 672.824 L254.201 672.824 L254.201 676.759 L234.293 676.759 L234.293 672.824 Z" fill="#000000" fill-rule="nonzero" fill-opacity="1" /><path clip-path="url(#clip990)" d="M273.645 645.278 Q270.034 645.278 268.205 648.842 Q266.4 652.384 266.4 659.514 Q266.4 666.62 268.205 670.185 Q270.034 673.727 273.645 673.727 Q277.279 673.727 279.085 670.185 Q280.913 666.62 280.913 659.514 Q280.913 652.384 279.085 648.842 Q277.279 645.278 273.645 645.278 M273.645 641.574 Q279.455 641.574 282.511 646.18 Q285.589 650.764 285.589 659.514 Q285.589 668.241 282.511 672.847 Q279.455 677.43 273.645 677.43 Q267.835 677.43 264.756 672.847 Q261.701 668.241 261.701 659.514 Q261.701 650.764 264.756 646.18 Q267.835 641.574 273.645 641.574 Z" fill="#000000" fill-rule="nonzero" fill-opacity="1" /><path clip-path="url(#clip990)" d="M295.294 623.77 Q292.36 623.77 290.874 626.666 Q289.407 629.544 289.407 635.337 Q289.407 641.111 290.874 644.007 Q292.36 646.885 295.294 646.885 Q298.247 646.885 299.714 644.007 Q301.2 641.111 301.2 635.337 Q301.2 629.544 299.714 626.666 Q298.247 623.77 295.294 623.77 M295.294 620.761 Q300.015 620.761 302.497 624.504 Q304.999 628.227 304.999 635.337 Q304.999 642.427 302.497 646.17 Q300.015 649.894 295.294 649.894 Q290.573 649.894 288.072 646.17 Q285.589 642.427 285.589 635.337 Q285.589 628.227 288.072 624.504 Q290.573 620.761 295.294 620.761 Z" fill="#000000" fill-rule="nonzero" fill-opacity="1" /><path clip-path="url(#clip990)" d="M424.618 672.824 L432.257 672.824 L432.257 646.458 L423.947 648.125 L423.947 643.866 L432.21 642.199 L436.886 642.199 L436.886 672.824 L444.525 672.824 L444.525 676.759 L424.618 676.759 L424.618 672.824 Z" fill="#000000" fill-rule="nonzero" fill-opacity="1" /><path clip-path="url(#clip990)" d="M463.97 645.278 Q460.358 645.278 458.53 648.842 Q456.724 652.384 456.724 659.514 Q456.724 666.62 458.53 670.185 Q460.358 673.727 463.97 673.727 Q467.604 673.727 469.409 670.185 Q471.238 666.62 471.238 659.514 Q471.238 652.384 469.409 648.842 Q467.604 645.278 463.97 645.278 M463.97 641.574 Q469.78 641.574 472.835 646.18 Q475.914 650.764 475.914 659.514 Q475.914 668.241 472.835 672.847 Q469.78 677.43 463.97 677.43 Q458.159 677.43 455.081 672.847 Q452.025 668.241 452.025 659.514 Q452.025 650.764 455.081 646.18 Q458.159 641.574 463.97 641.574 Z" fill="#000000" fill-rule="nonzero" fill-opacity="1" /><path clip-path="url(#clip990)" d="M477.099 621.269 L492.013 621.269 L492.013 624.466 L480.578 624.466 L480.578 631.35 Q481.406 631.067 482.233 630.936 Q483.061 630.785 483.888 630.785 Q488.59 630.785 491.336 633.362 Q494.082 635.939 494.082 640.34 Q494.082 644.872 491.261 647.393 Q488.44 649.894 483.305 649.894 Q481.537 649.894 479.694 649.593 Q477.87 649.292 475.914 648.69 L475.914 644.872 Q477.607 645.794 479.412 646.245 Q481.218 646.697 483.23 646.697 Q486.484 646.697 488.383 644.985 Q490.283 643.274 490.283 640.34 Q490.283 637.406 488.383 635.694 Q486.484 633.983 483.23 633.983 Q481.707 633.983 480.183 634.321 Q478.679 634.66 477.099 635.374 L477.099 621.269 Z" fill="#000000" fill-rule="nonzero" fill-opacity="1" /><path clip-path="url(#clip990)" d="M602.294 672.824 L609.933 672.824 L609.933 646.458 L601.623 648.125 L601.623 643.866 L609.887 642.199 L614.563 642.199 L614.563 672.824 L622.202 672.824 L622.202 676.759 L602.294 676.759 L602.294 672.824 Z" fill="#000000" fill-rule="nonzero" fill-opacity="1" /><path clip-path="url(#clip990)" d="M641.646 645.278 Q638.035 645.278 636.206 648.842 Q634.401 652.384 634.401 659.514 Q634.401 666.62 636.206 670.185 Q638.035 673.727 641.646 673.727 Q645.28 673.727 647.086 670.185 Q648.914 666.62 648.914 659.514 Q648.914 652.384 647.086 648.842 Q645.28 645.278 641.646 645.278 M641.646 641.574 Q647.456 641.574 650.512 646.18 Q653.59 650.764 653.59 659.514 Q653.59 668.241 650.512 672.847 Q647.456 677.43 641.646 677.43 Q635.836 677.43 632.757 672.847 Q629.702 668.241 629.702 659.514 Q629.702 650.764 632.757 646.18 Q635.836 641.574 641.646 641.574 Z" fill="#000000" fill-rule="nonzero" fill-opacity="1" /><path clip-path="url(#clip990)" d="M654.136 646.151 L660.342 646.151 L660.342 624.729 L653.59 626.083 L653.59 622.623 L660.305 621.269 L664.104 621.269 L664.104 646.151 L670.31 646.151 L670.31 649.349 L654.136 649.349 L654.136 646.151 Z" fill="#000000" fill-rule="nonzero" fill-opacity="1" /><path clip-path="url(#clip990)" d="M686.109 623.77 Q683.175 623.77 681.689 626.666 Q680.222 629.544 680.222 635.337 Q680.222 641.111 681.689 644.007 Q683.175 646.885 686.109 646.885 Q689.062 646.885 690.529 644.007 Q692.015 641.111 692.015 635.337 Q692.015 629.544 690.529 626.666 Q689.062 623.77 686.109 623.77 M686.109 620.761 Q690.83 620.761 693.312 624.504 Q695.814 628.227 695.814 635.337 Q695.814 642.427 693.312 646.17 Q690.83 649.894 686.109 649.894 Q681.388 649.894 678.887 646.17 Q676.404 642.427 676.404 635.337 Q676.404 628.227 678.887 624.504 Q681.388 620.761 686.109 620.761 Z" fill="#000000" fill-rule="nonzero" fill-opacity="1" /><polyline clip-path="url(#clip992)" style="stroke:#000000; stroke-linecap:round; stroke-linejoin:round; stroke-width:2; stroke-opacity:0.1; fill:none" points="244.852,494.183 705.512,494.183 "/>
<polyline clip-path="url(#clip992)" style="stroke:#000000; stroke-linecap:round; stroke-linejoin:round; stroke-width:2; stroke-opacity:0.1; fill:none" points="244.852,237.475 705.512,237.475 "/>
<polyline clip-path="url(#clip992)" style="stroke:#000000; stroke-linecap:round; stroke-linejoin:round; stroke-width:2; stroke-opacity:0.1; fill:none" points="244.852,494.183 705.512,494.183 "/>
<polyline clip-path="url(#clip992)" style="stroke:#000000; stroke-linecap:round; stroke-linejoin:round; stroke-width:2; stroke-opacity:0.1; fill:none" points="244.852,237.475 705.512,237.475 "/>
<polyline clip-path="url(#clip990)" style="stroke:#000000; stroke-linecap:round; stroke-linejoin:round; stroke-width:4; stroke-opacity:1; fill:none" points="244.852,611.499 244.852,94.4882 "/>
<polyline clip-path="url(#clip990)" style="stroke:#000000; stroke-linecap:round; stroke-linejoin:round; stroke-width:4; stroke-opacity:1; fill:none" points="705.512,611.499 705.512,94.4882 "/>
<polyline clip-path="url(#clip990)" style="stroke:#000000; stroke-linecap:round; stroke-linejoin:round; stroke-width:4; stroke-opacity:1; fill:none" points="244.852,494.183 263.749,494.183 "/>
<polyline clip-path="url(#clip990)" style="stroke:#000000; stroke-linecap:round; stroke-linejoin:round; stroke-width:4; stroke-opacity:1; fill:none" points="244.852,237.475 263.749,237.475 "/>
<polyline clip-path="url(#clip990)" style="stroke:#000000; stroke-linecap:round; stroke-linejoin:round; stroke-width:4; stroke-opacity:1; fill:none" points="705.512,494.183 686.614,494.183 "/>
<polyline clip-path="url(#clip990)" style="stroke:#000000; stroke-linecap:round; stroke-linejoin:round; stroke-width:4; stroke-opacity:1; fill:none" points="705.512,237.475 686.614,237.475 "/>
<path clip-path="url(#clip990)" d="M106.908 513.976 L114.546 513.976 L114.546 487.61 L106.236 489.277 L106.236 485.017 L114.5 483.351 L119.176 483.351 L119.176 513.976 L126.815 513.976 L126.815 517.911 L106.908 517.911 L106.908 513.976 Z" fill="#000000" fill-rule="nonzero" fill-opacity="1" /><path clip-path="url(#clip990)" d="M146.259 486.43 Q142.648 486.43 140.819 489.994 Q139.014 493.536 139.014 500.666 Q139.014 507.772 140.819 511.337 Q142.648 514.878 146.259 514.878 Q149.893 514.878 151.699 511.337 Q153.528 507.772 153.528 500.666 Q153.528 493.536 151.699 489.994 Q149.893 486.43 146.259 486.43 M146.259 482.726 Q152.069 482.726 155.125 487.332 Q158.204 491.916 158.204 500.666 Q158.204 509.392 155.125 513.999 Q152.069 518.582 146.259 518.582 Q140.449 518.582 137.37 513.999 Q134.315 509.392 134.315 500.666 Q134.315 491.916 137.37 487.332 Q140.449 482.726 146.259 482.726 Z" fill="#000000" fill-rule="nonzero" fill-opacity="1" /><path clip-path="url(#clip990)" d="M158.204 476.827 L182.315 476.827 L182.315 480.024 L158.204 480.024 L158.204 476.827 Z" fill="#000000" fill-rule="nonzero" fill-opacity="1" /><path clip-path="url(#clip990)" d="M191.174 487.303 L197.38 487.303 L197.38 465.881 L190.628 467.235 L190.628 463.775 L197.343 462.42 L201.142 462.42 L201.142 487.303 L207.348 487.303 L207.348 490.5 L191.174 490.5 L191.174 487.303 Z" fill="#000000" fill-rule="nonzero" fill-opacity="1" /><path clip-path="url(#clip990)" d="M223.147 464.922 Q220.213 464.922 218.727 467.818 Q217.26 470.696 217.26 476.489 Q217.26 482.263 218.727 485.159 Q220.213 488.037 223.147 488.037 Q226.1 488.037 227.567 485.159 Q229.052 482.263 229.052 476.489 Q229.052 470.696 227.567 467.818 Q226.1 464.922 223.147 464.922 M223.147 461.913 Q227.868 461.913 230.35 465.655 Q232.852 469.379 232.852 476.489 Q232.852 483.579 230.35 487.322 Q227.868 491.046 223.147 491.046 Q218.426 491.046 215.925 487.322 Q213.442 483.579 213.442 476.489 Q213.442 469.379 215.925 465.655 Q218.426 461.913 223.147 461.913 Z" fill="#000000" fill-rule="nonzero" fill-opacity="1" /><path clip-path="url(#clip990)" d="M132.223 257.267 L139.862 257.267 L139.862 230.902 L131.551 232.568 L131.551 228.309 L139.815 226.642 L144.491 226.642 L144.491 257.267 L152.13 257.267 L152.13 261.202 L132.223 261.202 L132.223 257.267 Z" fill="#000000" fill-rule="nonzero" fill-opacity="1" /><path clip-path="url(#clip990)" d="M171.574 229.721 Q167.963 229.721 166.135 233.286 Q164.329 236.828 164.329 243.957 Q164.329 251.064 166.135 254.628 Q167.963 258.17 171.574 258.17 Q175.209 258.17 177.014 254.628 Q178.843 251.064 178.843 243.957 Q178.843 236.828 177.014 233.286 Q175.209 229.721 171.574 229.721 M171.574 226.017 Q177.385 226.017 180.44 230.624 Q183.519 235.207 183.519 243.957 Q183.519 252.684 180.44 257.29 Q177.385 261.874 171.574 261.874 Q165.764 261.874 162.686 257.29 Q159.63 252.684 159.63 243.957 Q159.63 235.207 162.686 230.624 Q165.764 226.017 171.574 226.017 Z" fill="#000000" fill-rule="nonzero" fill-opacity="1" /><path clip-path="url(#clip990)" d="M183.519 220.119 L207.63 220.119 L207.63 223.316 L183.519 223.316 L183.519 220.119 Z" fill="#000000" fill-rule="nonzero" fill-opacity="1" /><path clip-path="url(#clip990)" d="M215.868 205.712 L230.783 205.712 L230.783 208.909 L219.348 208.909 L219.348 215.793 Q220.175 215.511 221.003 215.379 Q221.83 215.229 222.658 215.229 Q227.36 215.229 230.106 217.805 Q232.852 220.382 232.852 224.783 Q232.852 229.316 230.03 231.836 Q227.209 234.337 222.075 234.337 Q220.307 234.337 218.464 234.036 Q216.639 233.736 214.683 233.134 L214.683 229.316 Q216.376 230.237 218.182 230.689 Q219.987 231.14 221.999 231.14 Q225.253 231.14 227.153 229.429 Q229.052 227.717 229.052 224.783 Q229.052 221.849 227.153 220.138 Q225.253 218.426 221.999 218.426 Q220.476 218.426 218.953 218.765 Q217.448 219.103 215.868 219.818 L215.868 205.712 Z" fill="#000000" fill-rule="nonzero" fill-opacity="1" /><polyline clip-path="url(#clip992)" style="stroke:#4899ca; stroke-linecap:round; stroke-linejoin:round; stroke-width:8; stroke-opacity:0.7; fill:none" points="257.889,340.158 257.889,120.933 371.712,120.933 371.712,204.642 383.133,204.642 383.133,224.122 389.814,224.122 389.814,236.176 394.554,236.176 394.554,259.049 398.231,259.049 398.231,250.403 401.235,250.403 401.235,278.337 403.775,278.337 403.775,275.71 405.975,275.71 407.916,275.71 407.916,271.236 409.652,271.236 409.652,252.93 411.223,252.93 411.223,271.236 412.657,271.236 412.657,309.247 413.975,309.247 415.197,309.247 415.197,281.314 416.333,281.314 416.333,293.792 417.397,293.792 418.396,293.792 418.396,269.296 419.338,269.296 419.338,309.247 420.228,309.247 420.228,284.751 421.074,284.751 421.074,340.158 "/>
<polyline clip-path="url(#clip992)" style="stroke:#4899ca; stroke-linecap:round; stroke-linejoin:round; stroke-width:8; stroke-opacity:0.7; fill:none" points="423.377,340.158 423.377,293.792 424.078,293.792 424.078,309.247 424.75,309.247 425.397,309.247 425.397,340.158 "/>
<polyline clip-path="url(#clip992)" style="stroke:#4899ca; stroke-linecap:round; stroke-linejoin:round; stroke-width:8; stroke-opacity:0.7; fill:none" points="426.618,340.158 426.618,309.247 427.196,309.247 427.196,281.314 427.755,281.314 427.755,309.247 428.295,309.247 428.818,309.247 428.818,324.703 429.325,324.703 429.325,293.792 429.817,293.792 429.817,300.207 430.295,300.207 430.295,340.158 "/>
<polyline clip-path="url(#clip992)" style="stroke:#4899ca; stroke-linecap:round; stroke-linejoin:round; stroke-width:8; stroke-opacity:0.7; fill:none" points="431.21,340.158 431.21,324.703 431.65,324.703 431.65,288.816 432.078,288.816 432.078,340.158 "/>
<polyline clip-path="url(#clip992)" style="stroke:#4899ca; stroke-linecap:round; stroke-linejoin:round; stroke-width:8; stroke-opacity:0.7; fill:none" points="432.495,340.158 432.495,309.247 432.902,309.247 433.299,309.247 433.299,340.158 "/>
<polyline clip-path="url(#clip992)" style="stroke:#4899ca; stroke-linecap:round; stroke-linejoin:round; stroke-width:8; stroke-opacity:0.7; fill:none" points="433.687,340.158 433.687,293.792 434.065,293.792 434.065,340.158 "/>
<polyline clip-path="url(#clip992)" style="stroke:#4899ca; stroke-linecap:round; stroke-linejoin:round; stroke-width:8; stroke-opacity:0.7; fill:none" points="434.436,340.158 434.436,278.337 434.798,278.337 434.798,293.792 435.152,293.792 435.152,340.158 "/>
<polyline clip-path="url(#clip992)" style="stroke:#4899ca; stroke-linecap:round; stroke-linejoin:round; stroke-width:8; stroke-opacity:0.7; fill:none" points="435.499,340.158 435.499,293.792 435.839,293.792 435.839,340.158 "/>
<polyline clip-path="url(#clip992)" style="stroke:#4899ca; stroke-linecap:round; stroke-linejoin:round; stroke-width:8; stroke-opacity:0.7; fill:none" points="436.818,340.158 436.818,309.247 437.132,309.247 437.44,309.247 437.44,340.158 "/>
<polyline clip-path="url(#clip992)" style="stroke:#4899ca; stroke-linecap:round; stroke-linejoin:round; stroke-width:8; stroke-opacity:0.7; fill:none" points="438.617,340.158 438.617,324.703 438.899,324.703 438.899,275.71 439.176,275.71 439.176,309.247 439.448,309.247 439.448,293.792 439.716,293.792 439.98,293.792 439.98,340.158 "/>
<polyline clip-path="url(#clip992)" style="stroke:#4899ca; stroke-linecap:round; stroke-linejoin:round; stroke-width:8; stroke-opacity:0.7; fill:none" points="440.746,340.158 440.746,293.792 440.994,293.792 440.994,340.158 "/>
<polyline clip-path="url(#clip992)" style="stroke:#4899ca; stroke-linecap:round; stroke-linejoin:round; stroke-width:8; stroke-opacity:0.7; fill:none" points="441.479,340.158 441.479,309.247 441.716,309.247 441.716,340.158 "/>
<polyline clip-path="url(#clip992)" style="stroke:#4899ca; stroke-linecap:round; stroke-linejoin:round; stroke-width:8; stroke-opacity:0.7; fill:none" points="441.95,340.158 441.95,324.703 442.18,324.703 442.18,340.158 "/>
<polyline clip-path="url(#clip992)" style="stroke:#4899ca; stroke-linecap:round; stroke-linejoin:round; stroke-width:8; stroke-opacity:0.7; fill:none" points="442.632,340.158 442.632,324.703 442.853,324.703 442.853,300.207 443.071,300.207 443.071,340.158 "/>
<polyline clip-path="url(#clip992)" style="stroke:#4899ca; stroke-linecap:round; stroke-linejoin:round; stroke-width:8; stroke-opacity:0.7; fill:none" points="443.286,340.158 443.286,278.337 443.499,278.337 443.499,340.158 "/>
<polyline clip-path="url(#clip992)" style="stroke:#4899ca; stroke-linecap:round; stroke-linejoin:round; stroke-width:8; stroke-opacity:0.7; fill:none" points="449.752,340.158 449.752,309.247 449.896,309.247 449.896,340.158 "/>
<polyline clip-path="url(#clip992)" style="stroke:#4899ca; stroke-linecap:round; stroke-linejoin:round; stroke-width:8; stroke-opacity:0.7; fill:none" points="450.734,340.158 450.734,309.247 450.87,309.247 450.87,340.158 "/>
<polyline clip-path="url(#clip992)" style="stroke:#4899ca; stroke-linecap:round; stroke-linejoin:round; stroke-width:8; stroke-opacity:0.7; fill:none" points="451.27,340.158 451.27,293.792 451.401,293.792 451.532,293.792 451.532,340.158 "/>
<polyline clip-path="url(#clip992)" style="stroke:#4899ca; stroke-linecap:round; stroke-linejoin:round; stroke-width:8; stroke-opacity:0.7; fill:none" points="456.529,340.158 456.529,293.792 456.625,293.792 456.625,340.158 "/>
<polyline clip-path="url(#clip992)" style="stroke:#4899ca; stroke-linecap:round; stroke-linejoin:round; stroke-width:8; stroke-opacity:0.7; fill:none" points="462.223,340.158 462.223,293.792 462.291,293.792 462.291,340.158 "/>
<polyline clip-path="url(#clip992)" style="stroke:#4899ca; stroke-linecap:round; stroke-linejoin:round; stroke-width:8; stroke-opacity:0.7; fill:none" points="462.888,340.158 462.888,293.792 462.953,293.792 462.953,340.158 "/>
<polyline clip-path="url(#clip992)" style="stroke:#4899ca; stroke-linecap:round; stroke-linejoin:round; stroke-width:8; stroke-opacity:0.7; fill:none" points="464.676,340.158 464.676,293.792 464.734,293.792 464.734,340.158 "/>
<polyline clip-path="url(#clip992)" style="stroke:#4899ca; stroke-linecap:round; stroke-linejoin:round; stroke-width:8; stroke-opacity:0.7; fill:none" points="465.363,340.158 465.363,293.792 465.419,293.792 465.419,309.247 465.474,309.247 465.474,340.158 "/>
<polyline clip-path="url(#clip992)" style="stroke:#4899ca; stroke-linecap:round; stroke-linejoin:round; stroke-width:8; stroke-opacity:0.7; fill:none" points="466.022,340.158 466.022,293.792 466.076,293.792 466.076,340.158 "/>
<polyline clip-path="url(#clip992)" style="stroke:#4899ca; stroke-linecap:round; stroke-linejoin:round; stroke-width:8; stroke-opacity:0.7; fill:none" points="466.183,340.158 466.183,293.792 466.236,293.792 466.236,340.158 "/>
<polyline clip-path="url(#clip992)" style="stroke:#4899ca; stroke-linecap:round; stroke-linejoin:round; stroke-width:8; stroke-opacity:0.7; fill:none" points="468.745,340.158 468.745,309.247 468.791,309.247 468.791,340.158 "/>
<polyline clip-path="url(#clip992)" style="stroke:#4899ca; stroke-linecap:round; stroke-linejoin:round; stroke-width:8; stroke-opacity:0.7; fill:none" points="469.634,340.158 469.634,309.247 469.677,309.247 469.677,340.158 "/>
<polyline clip-path="url(#clip992)" style="stroke:#4899ca; stroke-linecap:round; stroke-linejoin:round; stroke-width:8; stroke-opacity:0.7; fill:none" points="470.27,340.158 470.27,309.247 470.312,309.247 470.312,340.158 "/>
<polyline clip-path="url(#clip992)" style="stroke:#4899ca; stroke-linecap:round; stroke-linejoin:round; stroke-width:8; stroke-opacity:0.7; fill:none" points="470.559,340.158 470.559,309.247 470.6,309.247 470.6,340.158 "/>
<polyline clip-path="url(#clip992)" style="stroke:#4899ca; stroke-linecap:round; stroke-linejoin:round; stroke-width:8; stroke-opacity:0.7; fill:none" points="470.923,340.158 470.923,309.247 470.963,309.247 470.963,340.158 "/>
<polyline clip-path="url(#clip992)" style="stroke:#4899ca; stroke-linecap:round; stroke-linejoin:round; stroke-width:8; stroke-opacity:0.7; fill:none" points="471.704,340.158 471.704,284.751 471.742,284.751 471.742,340.158 "/>
<polyline clip-path="url(#clip992)" style="stroke:#4899ca; stroke-linecap:round; stroke-linejoin:round; stroke-width:8; stroke-opacity:0.7; fill:none" points="476.039,340.158 476.039,309.247 476.068,309.247 476.068,340.158 "/>
<polyline clip-path="url(#clip992)" style="stroke:#4899ca; stroke-linecap:round; stroke-linejoin:round; stroke-width:8; stroke-opacity:0.7; fill:none" points="494.83,340.158 494.83,293.792 494.839,293.792 494.839,340.158 "/>
<polyline clip-path="url(#clip992)" style="stroke:#4899ca; stroke-linecap:round; stroke-linejoin:round; stroke-width:8; stroke-opacity:0.7; fill:none" points="518.13,340.158 518.13,309.247 518.133,309.247 518.133,324.703 518.135,324.703 518.135,340.158 "/>
<polyline clip-path="url(#clip992)" style="stroke:#4899ca; stroke-linecap:round; stroke-linejoin:round; stroke-width:8; stroke-opacity:0.7; fill:none" points="518.217,340.158 518.217,324.703 518.219,324.703 518.219,340.158 "/>
<polyline clip-path="url(#clip992)" style="stroke:#225973; stroke-linecap:round; stroke-linejoin:round; stroke-width:8; stroke-opacity:0.7; fill:none" points="257.889,340.158 257.889,121.879 371.712,121.879 371.712,194.952 383.133,194.952 383.133,211.08 389.814,211.08 389.814,232.44 394.554,232.44 394.554,237.475 398.231,237.475 398.231,258.662 401.235,258.662 401.235,248.375 403.775,248.375 403.775,257.906 405.975,257.906 405.975,257.175 407.916,257.175 407.916,268.09 409.652,268.09 409.652,264.821 411.223,264.821 411.223,262.881 412.657,262.881 412.657,290.355 413.975,290.355 413.975,274.899 415.197,274.899 415.197,293.792 416.333,293.792 417.397,293.792 417.397,290.355 418.396,290.355 419.338,290.355 419.338,318.288 420.228,318.288 420.228,287.377 421.074,287.377 421.074,302.833 421.878,302.833 421.878,280.277 422.644,280.277 422.644,270.57 423.377,270.57 423.377,278.337 424.078,278.337 424.078,280.277 424.75,280.277 424.75,340.158 "/>
<polyline clip-path="url(#clip992)" style="stroke:#225973; stroke-linecap:round; stroke-linejoin:round; stroke-width:8; stroke-opacity:0.7; fill:none" points="425.397,340.158 425.397,293.792 426.019,293.792 426.019,309.247 426.618,309.247 426.618,293.792 427.196,293.792 427.196,297.857 427.755,297.857 428.295,297.857 428.295,302.833 428.818,302.833 429.325,302.833 429.817,302.833 429.817,287.377 430.295,287.377 430.295,297.857 430.759,297.857 430.759,302.833 431.21,302.833 431.21,284.751 431.65,284.751 431.65,333.744 432.078,333.744 432.078,302.833 432.495,302.833 432.495,333.744 432.902,333.744 432.902,309.247 433.299,309.247 433.299,293.792 433.687,293.792 433.687,318.288 434.065,318.288 434.065,309.247 434.436,309.247 434.436,297.857 434.798,297.857 434.798,293.792 435.152,293.792 435.152,318.288 435.499,318.288 435.839,318.288 436.172,318.288 436.172,309.247 436.498,309.247 436.498,318.288 436.818,318.288 436.818,340.158 "/>
<polyline clip-path="url(#clip992)" style="stroke:#225973; stroke-linecap:round; stroke-linejoin:round; stroke-width:8; stroke-opacity:0.7; fill:none" points="437.132,340.158 437.132,293.792 437.44,293.792 437.44,340.158 "/>
<polyline clip-path="url(#clip992)" style="stroke:#225973; stroke-linecap:round; stroke-linejoin:round; stroke-width:8; stroke-opacity:0.7; fill:none" points="437.742,340.158 437.742,302.833 438.039,302.833 438.039,309.247 438.331,309.247 438.331,293.792 438.617,293.792 438.617,340.158 "/>
<polyline clip-path="url(#clip992)" style="stroke:#225973; stroke-linecap:round; stroke-linejoin:round; stroke-width:8; stroke-opacity:0.7; fill:none" points="438.899,340.158 438.899,284.751 439.176,284.751 439.176,318.288 439.448,318.288 439.448,302.833 439.716,302.833 439.716,318.288 439.98,318.288 439.98,297.857 440.239,297.857 440.495,297.857 440.495,318.288 440.746,318.288 440.746,333.744 440.994,333.744 440.994,340.158 "/>
<polyline clip-path="url(#clip992)" style="stroke:#225973; stroke-linecap:round; stroke-linejoin:round; stroke-width:8; stroke-opacity:0.7; fill:none" points="441.238,340.158 441.238,333.744 441.479,333.744 441.479,309.247 441.716,309.247 441.716,340.158 "/>
<polyline clip-path="url(#clip992)" style="stroke:#225973; stroke-linecap:round; stroke-linejoin:round; stroke-width:8; stroke-opacity:0.7; fill:none" points="442.18,340.158 442.18,302.833 442.407,302.833 442.407,293.792 442.632,293.792 442.632,318.288 442.853,318.288 442.853,340.158 "/>
<polyline clip-path="url(#clip992)" style="stroke:#225973; stroke-linecap:round; stroke-linejoin:round; stroke-width:8; stroke-opacity:0.7; fill:none" points="444.323,340.158 444.323,302.833 444.523,302.833 444.523,293.792 444.72,293.792 444.72,318.288 444.915,318.288 444.915,302.833 445.108,302.833 445.108,318.288 445.298,318.288 445.298,340.158 "/>
<polyline clip-path="url(#clip992)" style="stroke:#225973; stroke-linecap:round; stroke-linejoin:round; stroke-width:8; stroke-opacity:0.7; fill:none" points="445.487,340.158 445.487,309.247 445.673,309.247 445.673,333.744 445.857,333.744 445.857,340.158 "/>
<polyline clip-path="url(#clip992)" style="stroke:#225973; stroke-linecap:round; stroke-linejoin:round; stroke-width:8; stroke-opacity:0.7; fill:none" points="446.574,340.158 446.574,293.792 446.748,293.792 446.748,302.833 446.92,302.833 446.92,340.158 "/>
<polyline clip-path="url(#clip992)" style="stroke:#225973; stroke-linecap:round; stroke-linejoin:round; stroke-width:8; stroke-opacity:0.7; fill:none" points="447.26,340.158 447.26,318.288 447.428,318.288 447.428,340.158 "/>
<polyline clip-path="url(#clip992)" style="stroke:#225973; stroke-linecap:round; stroke-linejoin:round; stroke-width:8; stroke-opacity:0.7; fill:none" points="447.757,340.158 447.757,333.744 447.919,333.744 448.08,333.744 448.08,340.158 "/>
<polyline clip-path="url(#clip992)" style="stroke:#225973; stroke-linecap:round; stroke-linejoin:round; stroke-width:8; stroke-opacity:0.7; fill:none" points="448.861,340.158 448.861,318.288 449.013,318.288 449.013,293.792 449.164,293.792 449.164,318.288 449.313,318.288 449.313,340.158 "/>
<polyline clip-path="url(#clip992)" style="stroke:#225973; stroke-linecap:round; stroke-linejoin:round; stroke-width:8; stroke-opacity:0.7; fill:none" points="450.18,340.158 450.18,318.288 450.32,318.288 450.459,318.288 450.597,318.288 450.597,340.158 "/>
<polyline clip-path="url(#clip992)" style="stroke:#225973; stroke-linecap:round; stroke-linejoin:round; stroke-width:8; stroke-opacity:0.7; fill:none" points="450.734,340.158 450.734,302.833 450.87,302.833 450.87,340.158 "/>
<polyline clip-path="url(#clip992)" style="stroke:#225973; stroke-linecap:round; stroke-linejoin:round; stroke-width:8; stroke-opacity:0.7; fill:none" points="451.401,340.158 451.401,333.744 451.532,333.744 451.532,297.857 451.661,297.857 451.661,340.158 "/>
<polyline clip-path="url(#clip992)" style="stroke:#225973; stroke-linecap:round; stroke-linejoin:round; stroke-width:8; stroke-opacity:0.7; fill:none" points="452.66,340.158 452.66,318.288 452.78,318.288 452.78,340.158 "/>
<polyline clip-path="url(#clip992)" style="stroke:#225973; stroke-linecap:round; stroke-linejoin:round; stroke-width:8; stroke-opacity:0.7; fill:none" points="453.487,340.158 453.487,318.288 453.602,318.288 453.602,340.158 "/>
<polyline clip-path="url(#clip992)" style="stroke:#225973; stroke-linecap:round; stroke-linejoin:round; stroke-width:8; stroke-opacity:0.7; fill:none" points="453.941,340.158 453.941,302.833 454.053,302.833 454.053,340.158 "/>
<polyline clip-path="url(#clip992)" style="stroke:#225973; stroke-linecap:round; stroke-linejoin:round; stroke-width:8; stroke-opacity:0.7; fill:none" points="454.6,340.158 454.6,318.288 454.708,318.288 454.708,340.158 "/>
<polyline clip-path="url(#clip992)" style="stroke:#225973; stroke-linecap:round; stroke-linejoin:round; stroke-width:8; stroke-opacity:0.7; fill:none" points="454.92,340.158 454.92,302.833 455.026,302.833 455.026,340.158 "/>
<polyline clip-path="url(#clip992)" style="stroke:#225973; stroke-linecap:round; stroke-linejoin:round; stroke-width:8; stroke-opacity:0.7; fill:none" points="455.744,340.158 455.744,318.288 455.845,318.288 455.845,340.158 "/>
<polyline clip-path="url(#clip992)" style="stroke:#225973; stroke-linecap:round; stroke-linejoin:round; stroke-width:8; stroke-opacity:0.7; fill:none" points="455.944,340.158 455.944,318.288 456.043,318.288 456.043,340.158 "/>
<polyline clip-path="url(#clip992)" style="stroke:#225973; stroke-linecap:round; stroke-linejoin:round; stroke-width:8; stroke-opacity:0.7; fill:none" points="456.72,340.158 456.72,318.288 456.814,318.288 456.814,340.158 "/>
<polyline clip-path="url(#clip992)" style="stroke:#225973; stroke-linecap:round; stroke-linejoin:round; stroke-width:8; stroke-opacity:0.7; fill:none" points="457.187,340.158 457.187,302.833 457.278,302.833 457.278,340.158 "/>
<polyline clip-path="url(#clip992)" style="stroke:#225973; stroke-linecap:round; stroke-linejoin:round; stroke-width:8; stroke-opacity:0.7; fill:none" points="457.46,340.158 457.46,302.833 457.551,302.833 457.551,340.158 "/>
<polyline clip-path="url(#clip992)" style="stroke:#225973; stroke-linecap:round; stroke-linejoin:round; stroke-width:8; stroke-opacity:0.7; fill:none" points="457.819,340.158 457.819,318.288 457.907,318.288 457.907,340.158 "/>
<polyline clip-path="url(#clip992)" style="stroke:#225973; stroke-linecap:round; stroke-linejoin:round; stroke-width:8; stroke-opacity:0.7; fill:none" points="459.097,340.158 459.097,302.833 459.178,302.833 459.26,302.833 459.341,302.833 459.341,340.158 "/>
<polyline clip-path="url(#clip992)" style="stroke:#225973; stroke-linecap:round; stroke-linejoin:round; stroke-width:8; stroke-opacity:0.7; fill:none" points="461.601,340.158 461.601,318.288 461.672,318.288 461.672,340.158 "/>
<polyline clip-path="url(#clip992)" style="stroke:#225973; stroke-linecap:round; stroke-linejoin:round; stroke-width:8; stroke-opacity:0.7; fill:none" points="461.811,340.158 461.811,318.288 461.881,318.288 461.95,318.288 461.95,340.158 "/>
<polyline clip-path="url(#clip992)" style="stroke:#225973; stroke-linecap:round; stroke-linejoin:round; stroke-width:8; stroke-opacity:0.7; fill:none" points="462.019,340.158 462.019,318.288 462.087,318.288 462.087,340.158 "/>
<polyline clip-path="url(#clip992)" style="stroke:#225973; stroke-linecap:round; stroke-linejoin:round; stroke-width:8; stroke-opacity:0.7; fill:none" points="463.274,340.158 463.274,318.288 463.338,318.288 463.338,340.158 "/>
<polyline clip-path="url(#clip992)" style="stroke:#225973; stroke-linecap:round; stroke-linejoin:round; stroke-width:8; stroke-opacity:0.7; fill:none" points="464.02,340.158 464.02,318.288 464.081,318.288 464.081,340.158 "/>
<polyline clip-path="url(#clip992)" style="stroke:#225973; stroke-linecap:round; stroke-linejoin:round; stroke-width:8; stroke-opacity:0.7; fill:none" points="467.065,340.158 467.065,302.833 467.115,302.833 467.115,340.158 "/>
<polyline clip-path="url(#clip992)" style="stroke:#225973; stroke-linecap:round; stroke-linejoin:round; stroke-width:8; stroke-opacity:0.7; fill:none" points="468.972,340.158 468.972,318.288 469.017,318.288 469.017,340.158 "/>
<polyline clip-path="url(#clip992)" style="stroke:#225973; stroke-linecap:round; stroke-linejoin:round; stroke-width:8; stroke-opacity:0.7; fill:none" points="470.312,340.158 470.312,318.288 470.353,318.288 470.353,340.158 "/>
<polyline clip-path="url(#clip992)" style="stroke:#225973; stroke-linecap:round; stroke-linejoin:round; stroke-width:8; stroke-opacity:0.7; fill:none" points="470.436,340.158 470.436,318.288 470.477,318.288 470.477,340.158 "/>
<polyline clip-path="url(#clip992)" style="stroke:#225973; stroke-linecap:round; stroke-linejoin:round; stroke-width:8; stroke-opacity:0.7; fill:none" points="471.161,340.158 471.161,318.288 471.2,318.288 471.2,340.158 "/>
<polyline clip-path="url(#clip992)" style="stroke:#225973; stroke-linecap:round; stroke-linejoin:round; stroke-width:8; stroke-opacity:0.7; fill:none" points="471.357,340.158 471.357,302.833 471.396,302.833 471.396,340.158 "/>
<polyline clip-path="url(#clip992)" style="stroke:#225973; stroke-linecap:round; stroke-linejoin:round; stroke-width:8; stroke-opacity:0.7; fill:none" points="472.006,340.158 472.006,309.247 472.044,309.247 472.044,340.158 "/>
<polyline clip-path="url(#clip992)" style="stroke:#225973; stroke-linecap:round; stroke-linejoin:round; stroke-width:8; stroke-opacity:0.7; fill:none" points="472.667,340.158 472.667,302.833 472.703,302.833 472.703,340.158 "/>
<polyline clip-path="url(#clip992)" style="stroke:#225973; stroke-linecap:round; stroke-linejoin:round; stroke-width:8; stroke-opacity:0.7; fill:none" points="475.073,340.158 475.073,318.288 475.104,318.288 475.104,340.158 "/>
<polyline clip-path="url(#clip992)" style="stroke:#225973; stroke-linecap:round; stroke-linejoin:round; stroke-width:8; stroke-opacity:0.7; fill:none" points="475.921,340.158 475.921,318.288 475.951,318.288 475.951,340.158 "/>
<polyline clip-path="url(#clip992)" style="stroke:#225973; stroke-linecap:round; stroke-linejoin:round; stroke-width:8; stroke-opacity:0.7; fill:none" points="477.226,340.158 477.226,318.288 477.254,318.288 477.254,340.158 "/>
<polyline clip-path="url(#clip992)" style="stroke:#225973; stroke-linecap:round; stroke-linejoin:round; stroke-width:8; stroke-opacity:0.7; fill:none" points="479.372,340.158 479.372,318.288 479.396,318.288 479.396,340.158 "/>
<polyline clip-path="url(#clip992)" style="stroke:#225973; stroke-linecap:round; stroke-linejoin:round; stroke-width:8; stroke-opacity:0.7; fill:none" points="481.733,340.158 481.733,302.833 481.754,302.833 481.754,340.158 "/>
<polyline clip-path="url(#clip992)" style="stroke:#225973; stroke-linecap:round; stroke-linejoin:round; stroke-width:8; stroke-opacity:0.7; fill:none" points="483.926,340.158 483.926,318.288 483.944,318.288 483.944,340.158 "/>
<polyline clip-path="url(#clip992)" style="stroke:#225973; stroke-linecap:round; stroke-linejoin:round; stroke-width:8; stroke-opacity:0.7; fill:none" points="484.462,340.158 484.462,302.833 484.479,302.833 484.479,340.158 "/>
<polyline clip-path="url(#clip992)" style="stroke:#225973; stroke-linecap:round; stroke-linejoin:round; stroke-width:8; stroke-opacity:0.7; fill:none" points="486.385,340.158 486.385,318.288 486.401,318.288 486.401,340.158 "/>
<polyline clip-path="url(#clip992)" style="stroke:#225973; stroke-linecap:round; stroke-linejoin:round; stroke-width:8; stroke-opacity:0.7; fill:none" points="486.969,340.158 486.969,318.288 486.984,318.288 486.984,340.158 "/>
<polyline clip-path="url(#clip992)" style="stroke:#225973; stroke-linecap:round; stroke-linejoin:round; stroke-width:8; stroke-opacity:0.7; fill:none" points="487.224,340.158 487.224,302.833 487.239,302.833 487.239,340.158 "/>
<polyline clip-path="url(#clip992)" style="stroke:#225973; stroke-linecap:round; stroke-linejoin:round; stroke-width:8; stroke-opacity:0.7; fill:none" points="489.012,340.158 489.012,333.744 489.025,333.744 489.038,333.744 489.038,340.158 "/>
<polyline clip-path="url(#clip992)" style="stroke:#225973; stroke-linecap:round; stroke-linejoin:round; stroke-width:8; stroke-opacity:0.7; fill:none" points="489.781,340.158 489.781,333.744 489.794,333.744 489.806,333.744 489.806,340.158 "/>
<polyline clip-path="url(#clip992)" style="stroke:#225973; stroke-linecap:round; stroke-linejoin:round; stroke-width:8; stroke-opacity:0.7; fill:none" points="490.295,340.158 490.295,333.744 490.307,333.744 490.319,333.744 490.319,340.158 "/>
<polyline clip-path="url(#clip992)" style="stroke:#225973; stroke-linecap:round; stroke-linejoin:round; stroke-width:8; stroke-opacity:0.7; fill:none" points="490.344,340.158 490.344,318.288 490.356,318.288 490.356,340.158 "/>
<polyline clip-path="url(#clip992)" style="stroke:#225973; stroke-linecap:round; stroke-linejoin:round; stroke-width:8; stroke-opacity:0.7; fill:none" points="490.757,340.158 490.757,302.833 490.769,302.833 490.769,340.158 "/>
<polyline clip-path="url(#clip992)" style="stroke:#225973; stroke-linecap:round; stroke-linejoin:round; stroke-width:8; stroke-opacity:0.7; fill:none" points="491.172,340.158 491.172,318.288 491.184,318.288 491.184,340.158 "/>
<polyline clip-path="url(#clip992)" style="stroke:#225973; stroke-linecap:round; stroke-linejoin:round; stroke-width:8; stroke-opacity:0.7; fill:none" points="492.659,340.158 492.659,318.288 492.67,318.288 492.67,340.158 "/>
<polyline clip-path="url(#clip992)" style="stroke:#225973; stroke-linecap:round; stroke-linejoin:round; stroke-width:8; stroke-opacity:0.7; fill:none" points="495.979,340.158 495.979,318.288 495.988,318.288 495.988,333.744 495.997,333.744 495.997,340.158 "/>
<polyline clip-path="url(#clip992)" style="stroke:#225973; stroke-linecap:round; stroke-linejoin:round; stroke-width:8; stroke-opacity:0.7; fill:none" points="496.479,340.158 496.479,333.744 496.487,333.744 496.487,309.247 496.496,309.247 496.496,340.158 "/>
<polyline clip-path="url(#clip992)" style="stroke:#225973; stroke-linecap:round; stroke-linejoin:round; stroke-width:8; stroke-opacity:0.7; fill:none" points="499.835,340.158 499.835,333.744 499.842,333.744 499.842,340.158 "/>
<polyline clip-path="url(#clip992)" style="stroke:#225973; stroke-linecap:round; stroke-linejoin:round; stroke-width:8; stroke-opacity:0.7; fill:none" points="503.072,340.158 503.072,302.833 503.078,302.833 503.078,340.158 "/>
<polyline clip-path="url(#clip992)" style="stroke:#225973; stroke-linecap:round; stroke-linejoin:round; stroke-width:8; stroke-opacity:0.7; fill:none" points="503.789,340.158 503.789,302.833 503.795,302.833 503.795,340.158 "/>
<polyline clip-path="url(#clip992)" style="stroke:#225973; stroke-linecap:round; stroke-linejoin:round; stroke-width:8; stroke-opacity:0.7; fill:none" points="504.325,340.158 504.325,302.833 504.33,302.833 504.33,340.158 "/>
<polyline clip-path="url(#clip992)" style="stroke:#225973; stroke-linecap:round; stroke-linejoin:round; stroke-width:8; stroke-opacity:0.7; fill:none" points="507.751,340.158 507.751,318.288 507.755,318.288 507.755,340.158 "/>
<polyline clip-path="url(#clip992)" style="stroke:#225973; stroke-linecap:round; stroke-linejoin:round; stroke-width:8; stroke-opacity:0.7; fill:none" points="513.693,340.158 513.693,333.744 513.696,333.744 513.696,309.247 513.699,309.247 513.699,340.158 "/>
<polyline clip-path="url(#clip992)" style="stroke:#225973; stroke-linecap:round; stroke-linejoin:round; stroke-width:8; stroke-opacity:0.7; fill:none" points="513.711,340.158 513.711,318.288 513.713,318.288 513.713,340.158 "/>
<polyline clip-path="url(#clip992)" style="stroke:#225973; stroke-linecap:round; stroke-linejoin:round; stroke-width:8; stroke-opacity:0.7; fill:none" points="513.764,340.158 513.764,318.288 513.767,318.288 513.767,340.158 "/>
<polyline clip-path="url(#clip992)" style="stroke:#225973; stroke-linecap:round; stroke-linejoin:round; stroke-width:8; stroke-opacity:0.7; fill:none" points="515.906,340.158 515.906,302.833 515.909,302.833 515.909,340.158 "/>
<polyline clip-path="url(#clip992)" style="stroke:#101d24; stroke-linecap:round; stroke-linejoin:round; stroke-width:8; stroke-opacity:0.7; fill:none" points="333.771,442.842 333.771,222.398 447.593,222.398 447.593,345.134 459.014,345.134 459.014,361.733 465.695,361.733 465.695,363.566 470.436,363.566 470.436,371.979 474.113,371.979 474.113,396.475 477.117,396.475 477.117,383.997 479.657,383.997 479.657,378.394 481.857,378.394 481.857,427.386 483.798,427.386 483.798,387.435 485.534,387.435 485.534,411.931 487.104,411.931 487.104,383.997 488.538,383.997 488.538,411.931 489.857,411.931 489.857,402.89 491.078,402.89 491.078,442.842 "/>
<polyline clip-path="url(#clip992)" style="stroke:#101d24; stroke-linecap:round; stroke-linejoin:round; stroke-width:8; stroke-opacity:0.7; fill:none" points="494.277,442.842 494.277,427.386 495.219,427.386 495.219,442.842 "/>
<polyline clip-path="url(#clip992)" style="stroke:#101d24; stroke-linecap:round; stroke-linejoin:round; stroke-width:8; stroke-opacity:0.7; fill:none" points="496.11,442.842 496.11,411.931 496.955,411.931 496.955,442.842 "/>
<polyline clip-path="url(#clip992)" style="stroke:#101d24; stroke-linecap:round; stroke-linejoin:round; stroke-width:8; stroke-opacity:0.7; fill:none" points="498.526,442.842 498.526,411.931 499.258,411.931 499.258,442.842 "/>
<polyline clip-path="url(#clip992)" style="stroke:#101d24; stroke-linecap:round; stroke-linejoin:round; stroke-width:8; stroke-opacity:0.7; fill:none" points="499.959,442.842 499.959,411.931 500.632,411.931 500.632,442.842 "/>
<polyline clip-path="url(#clip992)" style="stroke:#101d24; stroke-linecap:round; stroke-linejoin:round; stroke-width:8; stroke-opacity:0.7; fill:none" points="501.278,442.842 501.278,411.931 501.9,411.931 501.9,427.386 502.499,427.386 502.499,442.842 "/>
<polyline clip-path="url(#clip992)" style="stroke:#101d24; stroke-linecap:round; stroke-linejoin:round; stroke-width:8; stroke-opacity:0.7; fill:none" points="503.078,442.842 503.078,411.931 503.636,411.931 503.636,399.453 504.177,399.453 504.177,418.345 504.7,418.345 504.7,442.842 "/>
<polyline clip-path="url(#clip992)" style="stroke:#101d24; stroke-linecap:round; stroke-linejoin:round; stroke-width:8; stroke-opacity:0.7; fill:none" points="506.64,442.842 506.64,411.931 507.092,411.931 507.531,411.931 507.531,442.842 "/>
<polyline clip-path="url(#clip992)" style="stroke:#101d24; stroke-linecap:round; stroke-linejoin:round; stroke-width:8; stroke-opacity:0.7; fill:none" points="509.568,442.842 509.568,418.345 509.947,418.345 509.947,442.842 "/>
<polyline clip-path="url(#clip992)" style="stroke:#101d24; stroke-linecap:round; stroke-linejoin:round; stroke-width:8; stroke-opacity:0.7; fill:none" points="511.034,442.842 511.034,442.842 511.381,442.842 "/>
<polyline clip-path="url(#clip992)" style="stroke:#101d24; stroke-linecap:round; stroke-linejoin:round; stroke-width:8; stroke-opacity:0.7; fill:none" points="517.361,442.842 517.361,411.931 517.598,411.931 517.598,442.842 "/>
<polyline clip-path="url(#clip992)" style="stroke:#101d24; stroke-linecap:round; stroke-linejoin:round; stroke-width:8; stroke-opacity:0.7; fill:none" points="527.798,442.842 527.798,411.931 527.924,411.931 527.924,442.842 "/>
<polyline clip-path="url(#clip992)" style="stroke:#101d24; stroke-linecap:round; stroke-linejoin:round; stroke-width:8; stroke-opacity:0.7; fill:none" points="529.368,442.842 529.368,427.386 529.483,427.386 529.483,442.842 "/>
<polyline clip-path="url(#clip992)" style="stroke:#101d24; stroke-linecap:round; stroke-linejoin:round; stroke-width:8; stroke-opacity:0.7; fill:none" points="536.69,442.842 536.69,427.386 536.763,427.386 536.763,442.842 "/>
<polyline clip-path="url(#clip992)" style="stroke:#101d24; stroke-linecap:round; stroke-linejoin:round; stroke-width:8; stroke-opacity:0.7; fill:none" points="537.412,442.842 537.412,427.386 537.483,427.386 537.483,442.842 "/>
<polyline clip-path="url(#clip992)" style="stroke:#101d24; stroke-linecap:round; stroke-linejoin:round; stroke-width:8; stroke-opacity:0.7; fill:none" points="537.693,442.842 537.693,427.386 537.762,427.386 537.762,442.842 "/>
<polyline clip-path="url(#clip992)" style="stroke:#101d24; stroke-linecap:round; stroke-linejoin:round; stroke-width:8; stroke-opacity:0.7; fill:none" points="538.037,442.842 538.037,427.386 538.105,427.386 538.105,442.842 "/>
<polyline clip-path="url(#clip992)" style="stroke:#101d24; stroke-linecap:round; stroke-linejoin:round; stroke-width:8; stroke-opacity:0.7; fill:none" points="552.666,442.842 552.666,427.386 552.694,427.386 552.694,442.842 "/>
<polyline clip-path="url(#clip992)" style="stroke:#101d24; stroke-linecap:round; stroke-linejoin:round; stroke-width:8; stroke-opacity:0.7; fill:none" points="558.345,442.842 558.345,411.931 558.365,411.931 558.365,442.842 "/>
<polyline clip-path="url(#clip992)" style="stroke:#101d24; stroke-linecap:round; stroke-linejoin:round; stroke-width:8; stroke-opacity:0.7; fill:none" points="562.546,442.842 562.546,411.931 562.561,411.931 562.561,442.842 "/>
<polyline clip-path="url(#clip992)" style="stroke:#101d24; stroke-linecap:round; stroke-linejoin:round; stroke-width:8; stroke-opacity:0.7; fill:none" points="588.083,442.842 588.083,411.931 588.086,411.931 588.086,442.842 "/>
<polyline clip-path="url(#clip992)" style="stroke:#2c0e00; stroke-linecap:round; stroke-linejoin:round; stroke-width:8; stroke-opacity:0.7; fill:none" points="432.495,596.867 432.495,355.633 546.317,355.633 546.317,550.5 557.739,550.5 564.42,550.5 564.42,565.956 569.16,565.956 569.16,596.867 "/>
<polyline clip-path="url(#clip992)" style="stroke:#2c0e00; stroke-linecap:round; stroke-linejoin:round; stroke-width:8; stroke-opacity:0.7; fill:none" points="572.837,596.867 572.837,565.956 575.841,565.956 575.841,596.867 "/>
<polyline clip-path="url(#clip992)" style="stroke:#2c0e00; stroke-linecap:round; stroke-linejoin:round; stroke-width:8; stroke-opacity:0.7; fill:none" points="590.939,596.867 590.939,541.46 592.003,541.46 592.003,596.867 "/>
<polyline clip-path="url(#clip992)" style="stroke:#2c0e00; stroke-linecap:round; stroke-linejoin:round; stroke-width:8; stroke-opacity:0.7; fill:none" points="692.472,596.867 692.472,550.5 692.474,550.5 692.474,596.867 "/>
<polyline clip-path="url(#clip992)" style="stroke:#67230e; stroke-linecap:round; stroke-linejoin:round; stroke-width:8; stroke-opacity:0.7; fill:none" points="409.652,545.525 409.652,324.772 523.475,324.772 523.475,479.484 534.896,479.484 534.896,503.224 541.577,503.224 546.317,503.224 549.994,503.224 549.994,545.525 "/>
<polyline clip-path="url(#clip992)" style="stroke:#67230e; stroke-linecap:round; stroke-linejoin:round; stroke-width:8; stroke-opacity:0.7; fill:none" points="552.998,545.525 552.998,523.655 555.538,523.655 555.538,545.525 "/>
<polyline clip-path="url(#clip992)" style="stroke:#67230e; stroke-linecap:round; stroke-linejoin:round; stroke-width:8; stroke-opacity:0.7; fill:none" points="557.739,545.525 557.739,539.11 559.679,539.11 559.679,545.525 "/>
<polyline clip-path="url(#clip992)" style="stroke:#67230e; stroke-linecap:round; stroke-linejoin:round; stroke-width:8; stroke-opacity:0.7; fill:none" points="571.992,545.525 571.992,539.11 572.837,539.11 572.837,545.525 "/>
<polyline clip-path="url(#clip992)" style="stroke:#67230e; stroke-linecap:round; stroke-linejoin:round; stroke-width:8; stroke-opacity:0.7; fill:none" points="587.935,545.525 587.935,523.655 588.261,523.655 588.261,545.525 "/>
<polyline clip-path="url(#clip992)" style="stroke:#67230e; stroke-linecap:round; stroke-linejoin:round; stroke-width:8; stroke-opacity:0.7; fill:none" points="592.258,545.525 592.258,523.655 592.51,523.655 592.51,545.525 "/>
<polyline clip-path="url(#clip992)" style="stroke:#67230e; stroke-linecap:round; stroke-linejoin:round; stroke-width:8; stroke-opacity:0.7; fill:none" points="598.511,545.525 598.511,523.655 598.684,523.655 598.684,545.525 "/>
<polyline clip-path="url(#clip992)" style="stroke:#67230e; stroke-linecap:round; stroke-linejoin:round; stroke-width:8; stroke-opacity:0.7; fill:none" points="602.361,545.525 602.361,539.11 602.497,539.11 602.497,545.525 "/>
<polyline clip-path="url(#clip992)" style="stroke:#67230e; stroke-linecap:round; stroke-linejoin:round; stroke-width:8; stroke-opacity:0.7; fill:none" points="602.633,545.525 602.633,539.11 602.767,539.11 602.767,545.525 "/>
<polyline clip-path="url(#clip992)" style="stroke:#67230e; stroke-linecap:round; stroke-linejoin:round; stroke-width:8; stroke-opacity:0.7; fill:none" points="613.365,545.525 613.365,539.11 613.435,539.11 613.435,545.525 "/>
<polyline clip-path="url(#clip992)" style="stroke:#67230e; stroke-linecap:round; stroke-linejoin:round; stroke-width:8; stroke-opacity:0.7; fill:none" points="639.485,545.525 639.485,539.11 639.499,539.11 639.499,545.525 "/>
<polyline clip-path="url(#clip992)" style="stroke:#67230e; stroke-linecap:round; stroke-linejoin:round; stroke-width:8; stroke-opacity:0.7; fill:none" points="639.954,545.525 639.954,539.11 639.968,539.11 639.968,545.525 "/>
<polyline clip-path="url(#clip992)" style="stroke:#67230e; stroke-linecap:round; stroke-linejoin:round; stroke-width:8; stroke-opacity:0.7; fill:none" points="662.19,545.525 662.19,523.655 662.194,523.655 662.194,545.525 "/>
<polyline clip-path="url(#clip992)" style="stroke:#b16355; stroke-linecap:round; stroke-linejoin:round; stroke-width:8; stroke-opacity:0.7; fill:none" points="356.613,494.183 356.613,253.217 470.436,253.217 470.436,376.365 481.857,376.365 481.857,387.702 488.538,387.702 488.538,411.931 493.278,411.931 493.278,434.889 496.955,434.889 499.959,434.889 499.959,424.409 502.499,424.409 502.499,421.782 504.7,421.782 504.7,470.775 506.64,470.775 506.64,430.823 508.377,430.823 508.377,437.238 509.947,437.238 509.947,494.183 "/>
<polyline clip-path="url(#clip992)" style="stroke:#b16355; stroke-linecap:round; stroke-linejoin:round; stroke-width:8; stroke-opacity:0.7; fill:none" points="511.381,494.183 511.381,434.889 512.7,434.889 512.7,461.734 513.921,461.734 513.921,470.775 515.058,470.775 515.058,494.183 "/>
<polyline clip-path="url(#clip992)" style="stroke:#b16355; stroke-linecap:round; stroke-linejoin:round; stroke-width:8; stroke-opacity:0.7; fill:none" points="516.121,494.183 516.121,455.32 517.12,455.32 517.12,494.183 "/>
<polyline clip-path="url(#clip992)" style="stroke:#b16355; stroke-linecap:round; stroke-linejoin:round; stroke-width:8; stroke-opacity:0.7; fill:none" points="521.368,494.183 521.368,455.32 522.101,455.32 522.101,494.183 "/>
<polyline clip-path="url(#clip992)" style="stroke:#b16355; stroke-linecap:round; stroke-linejoin:round; stroke-width:8; stroke-opacity:0.7; fill:none" points="524.121,494.183 524.121,446.279 524.743,446.279 524.743,470.775 525.342,470.775 525.342,494.183 "/>
<polyline clip-path="url(#clip992)" style="stroke:#b16355; stroke-linecap:round; stroke-linejoin:round; stroke-width:8; stroke-opacity:0.7; fill:none" points="525.92,494.183 525.92,455.32 526.479,455.32 526.479,494.183 "/>
<polyline clip-path="url(#clip992)" style="stroke:#b16355; stroke-linecap:round; stroke-linejoin:round; stroke-width:8; stroke-opacity:0.7; fill:none" points="527.019,494.183 527.019,455.32 527.542,455.32 528.049,455.32 528.049,470.775 528.541,470.775 528.541,494.183 "/>
<polyline clip-path="url(#clip992)" style="stroke:#b16355; stroke-linecap:round; stroke-linejoin:round; stroke-width:8; stroke-opacity:0.7; fill:none" points="529.019,494.183 529.019,470.775 529.483,470.775 529.935,470.775 530.374,470.775 530.374,494.183 "/>
<polyline clip-path="url(#clip992)" style="stroke:#b16355; stroke-linecap:round; stroke-linejoin:round; stroke-width:8; stroke-opacity:0.7; fill:none" points="531.626,494.183 531.626,470.775 532.023,470.775 532.411,470.775 532.411,446.279 532.79,446.279 532.79,494.183 "/>
<polyline clip-path="url(#clip992)" style="stroke:#b16355; stroke-linecap:round; stroke-linejoin:round; stroke-width:8; stroke-opacity:0.7; fill:none" points="533.522,494.183 533.522,470.775 533.876,470.775 533.876,494.183 "/>
<polyline clip-path="url(#clip992)" style="stroke:#b16355; stroke-linecap:round; stroke-linejoin:round; stroke-width:8; stroke-opacity:0.7; fill:none" points="534.563,494.183 534.563,455.32 534.896,455.32 534.896,494.183 "/>
<polyline clip-path="url(#clip992)" style="stroke:#b16355; stroke-linecap:round; stroke-linejoin:round; stroke-width:8; stroke-opacity:0.7; fill:none" points="538.173,494.183 538.173,455.32 538.441,455.32 538.441,494.183 "/>
<polyline clip-path="url(#clip992)" style="stroke:#b16355; stroke-linecap:round; stroke-linejoin:round; stroke-width:8; stroke-opacity:0.7; fill:none" points="540.44,494.183 540.44,470.775 540.674,470.775 540.674,494.183 "/>
<polyline clip-path="url(#clip992)" style="stroke:#b16355; stroke-linecap:round; stroke-linejoin:round; stroke-width:8; stroke-opacity:0.7; fill:none" points="541.132,494.183 541.132,470.775 541.356,470.775 541.356,494.183 "/>
<polyline clip-path="url(#clip992)" style="stroke:#b16355; stroke-linecap:round; stroke-linejoin:round; stroke-width:8; stroke-opacity:0.7; fill:none" points="541.577,494.183 541.577,470.775 541.795,470.775 541.795,494.183 "/>
<polyline clip-path="url(#clip992)" style="stroke:#b16355; stroke-linecap:round; stroke-linejoin:round; stroke-width:8; stroke-opacity:0.7; fill:none" points="542.011,494.183 542.011,470.775 542.223,470.775 542.223,494.183 "/>
<polyline clip-path="url(#clip992)" style="stroke:#b16355; stroke-linecap:round; stroke-linejoin:round; stroke-width:8; stroke-opacity:0.7; fill:none" points="543.639,494.183 543.639,455.32 543.832,455.32 543.832,494.183 "/>
<polyline clip-path="url(#clip992)" style="stroke:#b16355; stroke-linecap:round; stroke-linejoin:round; stroke-width:8; stroke-opacity:0.7; fill:none" points="544.397,494.183 544.397,470.775 544.581,470.775 544.581,494.183 "/>
<polyline clip-path="url(#clip992)" style="stroke:#b16355; stroke-linecap:round; stroke-linejoin:round; stroke-width:8; stroke-opacity:0.7; fill:none" points="547.888,494.183 547.888,470.775 548.037,470.775 548.037,494.183 "/>
<polyline clip-path="url(#clip992)" style="stroke:#b16355; stroke-linecap:round; stroke-linejoin:round; stroke-width:8; stroke-opacity:0.7; fill:none" points="554.767,494.183 554.767,455.32 554.866,455.32 554.866,494.183 "/>
<polyline clip-path="url(#clip992)" style="stroke:#b16355; stroke-linecap:round; stroke-linejoin:round; stroke-width:8; stroke-opacity:0.7; fill:none" points="559.083,494.183 559.083,470.775 559.159,470.775 559.159,494.183 "/>
<polyline clip-path="url(#clip992)" style="stroke:#b16355; stroke-linecap:round; stroke-linejoin:round; stroke-width:8; stroke-opacity:0.7; fill:none" points="572.301,494.183 572.301,470.775 572.335,470.775 572.335,494.183 "/>
<polyline clip-path="url(#clip992)" style="stroke:#b16355; stroke-linecap:round; stroke-linejoin:round; stroke-width:8; stroke-opacity:0.7; fill:none" points="588.171,494.183 588.171,455.32 588.184,455.32 588.184,494.183 "/>
<polyline clip-path="url(#clip992)" style="stroke:#b16355; stroke-linecap:round; stroke-linejoin:round; stroke-width:8; stroke-opacity:0.7; fill:none" points="592.299,494.183 592.299,455.32 592.309,455.32 592.309,494.183 "/>
<polyline clip-path="url(#clip992)" style="stroke:#b16355; stroke-linecap:round; stroke-linejoin:round; stroke-width:8; stroke-opacity:0.7; fill:none" points="596.302,494.183 596.302,455.32 596.31,455.32 596.31,494.183 "/>
<polyline clip-path="url(#clip992)" style="stroke:#b16355; stroke-linecap:round; stroke-linejoin:round; stroke-width:8; stroke-opacity:0.7; fill:none" points="596.917,494.183 596.917,455.32 596.925,455.32 596.925,494.183 "/>
<polyline clip-path="url(#clip992)" style="stroke:#b16355; stroke-linecap:round; stroke-linejoin:round; stroke-width:8; stroke-opacity:0.7; fill:none" points="603.424,494.183 603.424,455.32 603.429,455.32 603.429,494.183 "/>
<polyline clip-path="url(#clip992)" style="stroke:#b16355; stroke-linecap:round; stroke-linejoin:round; stroke-width:8; stroke-opacity:0.7; fill:none" points="614.038,494.183 614.038,470.775 614.041,470.775 614.041,494.183 "/>
<polyline clip-path="url(#clip992)" style="stroke:#b16355; stroke-linecap:round; stroke-linejoin:round; stroke-width:8; stroke-opacity:0.7; fill:none" points="618.092,494.183 618.092,470.775 618.094,470.775 618.094,494.183 "/>
<polyline clip-path="url(#clip992)" style="stroke:#b16355; stroke-linecap:round; stroke-linejoin:round; stroke-width:8; stroke-opacity:0.7; fill:none" points="618.096,494.183 618.096,470.775 618.099,470.775 618.099,494.183 "/>
<polyline clip-path="url(#clip992)" style="stroke:#feadad; stroke-linecap:round; stroke-linejoin:round; stroke-width:8; stroke-opacity:0.7; fill:none" points="371.712,545.525 371.712,273.55 485.534,273.55 485.534,406.733 496.955,406.733 496.955,427.386 503.636,427.386 503.636,432.362 508.377,432.362 508.377,449.256 512.053,449.256 515.058,449.256 515.058,469.687 517.598,469.687 519.798,469.687 519.798,494.183 521.739,494.183 521.739,447.817 523.475,447.817 523.475,478.728 525.045,478.728 525.045,463.272 526.479,463.272 526.479,478.728 527.798,478.728 527.798,494.183 529.019,494.183 529.019,478.728 530.156,478.728 530.156,545.525 "/>
<polyline clip-path="url(#clip992)" style="stroke:#feadad; stroke-linecap:round; stroke-linejoin:round; stroke-width:8; stroke-opacity:0.7; fill:none" points="531.219,545.525 531.219,494.183 532.218,494.183 532.218,463.272 533.16,463.272 533.16,545.525 "/>
<polyline clip-path="url(#clip992)" style="stroke:#feadad; stroke-linecap:round; stroke-linejoin:round; stroke-width:8; stroke-opacity:0.7; fill:none" points="539.219,545.525 539.219,478.728 539.841,478.728 539.841,545.525 "/>
<polyline clip-path="url(#clip992)" style="stroke:#feadad; stroke-linecap:round; stroke-linejoin:round; stroke-width:8; stroke-opacity:0.7; fill:none" points="540.44,545.525 540.44,494.183 541.018,494.183 541.018,478.728 541.577,478.728 541.577,494.183 542.117,494.183 542.117,545.525 "/>
<polyline clip-path="url(#clip992)" style="stroke:#feadad; stroke-linecap:round; stroke-linejoin:round; stroke-width:8; stroke-opacity:0.7; fill:none" points="543.639,545.525 543.639,478.728 544.117,478.728 544.581,478.728 544.581,545.525 "/>
<polyline clip-path="url(#clip992)" style="stroke:#feadad; stroke-linecap:round; stroke-linejoin:round; stroke-width:8; stroke-opacity:0.7; fill:none" points="545.033,545.525 545.033,494.183 545.472,494.183 545.472,545.525 "/>
<polyline clip-path="url(#clip992)" style="stroke:#feadad; stroke-linecap:round; stroke-linejoin:round; stroke-width:8; stroke-opacity:0.7; fill:none" points="547.888,545.525 547.888,494.183 548.258,494.183 548.258,545.525 "/>
<polyline clip-path="url(#clip992)" style="stroke:#feadad; stroke-linecap:round; stroke-linejoin:round; stroke-width:8; stroke-opacity:0.7; fill:none" points="552.153,545.525 552.153,494.183 552.44,494.183 552.44,545.525 "/>
<polyline clip-path="url(#clip992)" style="stroke:#feadad; stroke-linecap:round; stroke-linejoin:round; stroke-width:8; stroke-opacity:0.7; fill:none" points="554.817,545.525 554.817,478.728 555.061,478.728 555.061,545.525 "/>
<polyline clip-path="url(#clip992)" style="stroke:#feadad; stroke-linecap:round; stroke-linejoin:round; stroke-width:8; stroke-opacity:0.7; fill:none" points="558.738,545.525 558.738,494.183 558.93,494.183 559.121,494.183 559.121,545.525 "/>
<polyline clip-path="url(#clip992)" style="stroke:#feadad; stroke-linecap:round; stroke-linejoin:round; stroke-width:8; stroke-opacity:0.7; fill:none" points="563.575,545.525 563.575,478.728 563.718,478.728 563.718,545.525 "/>
<polyline clip-path="url(#clip992)" style="stroke:#feadad; stroke-linecap:round; stroke-linejoin:round; stroke-width:8; stroke-opacity:0.7; fill:none" points="568.097,545.525 568.097,494.183 568.206,494.183 568.206,545.525 "/>
<polyline clip-path="url(#clip992)" style="stroke:#feadad; stroke-linecap:round; stroke-linejoin:round; stroke-width:8; stroke-opacity:0.7; fill:none" points="570.352,545.525 570.352,494.183 570.447,494.183 570.447,545.525 "/>
<polyline clip-path="url(#clip992)" style="stroke:#feadad; stroke-linecap:round; stroke-linejoin:round; stroke-width:8; stroke-opacity:0.7; fill:none" points="572.25,545.525 572.25,494.183 572.335,494.183 572.335,545.525 "/>
<polyline clip-path="url(#clip992)" style="stroke:#feadad; stroke-linecap:round; stroke-linejoin:round; stroke-width:8; stroke-opacity:0.7; fill:none" points="577.096,545.525 577.096,478.728 577.16,478.728 577.16,545.525 "/>
<polyline clip-path="url(#clip992)" style="stroke:#feadad; stroke-linecap:round; stroke-linejoin:round; stroke-width:8; stroke-opacity:0.7; fill:none" points="581.385,545.525 581.385,494.183 581.434,494.183 581.434,545.525 "/>
<polyline clip-path="url(#clip992)" style="stroke:#feadad; stroke-linecap:round; stroke-linejoin:round; stroke-width:8; stroke-opacity:0.7; fill:none" points="581.483,545.525 581.483,494.183 581.532,494.183 581.532,545.525 "/>
<polyline clip-path="url(#clip992)" style="stroke:#feadad; stroke-linecap:round; stroke-linejoin:round; stroke-width:8; stroke-opacity:0.7; fill:none" points="588.164,545.525 588.164,485.142 588.197,485.142 588.197,509.639 588.229,509.639 588.229,545.525 "/>
<polyline clip-path="url(#clip992)" style="stroke:#feadad; stroke-linecap:round; stroke-linejoin:round; stroke-width:8; stroke-opacity:0.7; fill:none" points="592.283,545.525 592.283,478.728 592.309,478.728 592.309,545.525 "/>
<polyline clip-path="url(#clip992)" style="stroke:#feadad; stroke-linecap:round; stroke-linejoin:round; stroke-width:8; stroke-opacity:0.7; fill:none" points="593.17,545.525 593.17,478.728 593.194,478.728 593.194,545.525 "/>
<polyline clip-path="url(#clip992)" style="stroke:#feadad; stroke-linecap:round; stroke-linejoin:round; stroke-width:8; stroke-opacity:0.7; fill:none" points="614.034,545.525 614.034,494.183 614.041,494.183 614.041,545.525 "/>
<polyline clip-path="url(#clip992)" style="stroke:#feadad; stroke-linecap:round; stroke-linejoin:round; stroke-width:8; stroke-opacity:0.7; fill:none" points="618.115,545.525 618.115,494.183 618.121,494.183 618.126,494.183 618.126,545.525 "/>
<polyline clip-path="url(#clip992)" style="stroke:#feadad; stroke-linecap:round; stroke-linejoin:round; stroke-width:8; stroke-opacity:0.7; fill:none" points="635.172,545.525 635.172,494.183 635.174,494.183 635.174,545.525 "/>
<polyline clip-path="url(#clip992)" style="stroke:#ff0000; stroke-linecap:round; stroke-linejoin:round; stroke-width:20; stroke-opacity:1; fill:none" points="383.133,109.121 535.063,417.51 546.484,440.692 553.165,454.252 557.905,463.874 561.581,471.337 564.586,477.435 567.126,482.59 569.326,487.056 571.267,490.996 573.003,494.52 574.573,497.707 576.007,500.618 577.326,503.295 578.547,505.773 579.684,508.081 580.747,510.239 581.746,512.267 582.688,514.179 583.579,515.987 584.424,517.703 585.228,519.334 585.994,520.89 586.727,522.377 587.428,523.801 588.101,525.166 588.747,526.478 589.369,527.74 589.968,528.956 590.546,530.13 591.105,531.264 591.645,532.36 592.168,533.422 592.675,534.452 593.167,535.45 593.645,536.419 594.109,537.362 594.56,538.278 595,539.17 595.428,540.039 595.845,540.886 596.252,541.711 596.649,542.517 597.037,543.304 597.416,544.073 597.786,544.825 598.148,545.56 598.502,546.279 598.849,546.984 599.189,547.673 599.522,548.349 599.848,549.011 600.168,549.661 600.482,550.298 600.79,550.923 601.092,551.537 601.389,552.139 601.681,552.731 601.968,553.313 602.249,553.885 602.526,554.447 602.798,555 603.066,555.543 603.33,556.079 603.59,556.605 603.845,557.124 604.097,557.635 604.344,558.137 604.588,558.633 604.829,559.121 605.066,559.603 605.3,560.077 605.53,560.545 605.758,561.006 605.982,561.461 606.203,561.91 606.421,562.353 606.637,562.79 606.849,563.222 607.059,563.648 607.266,564.069 607.471,564.484 607.673,564.894 607.873,565.3 608.07,565.7 608.265,566.096 608.458,566.487 608.649,566.874 608.837,567.256 609.023,567.634 609.207,568.008 609.389,568.378 609.569,568.743 609.747,569.105 609.924,569.462 610.098,569.816 610.271,570.167 610.441,570.513 610.61,570.856 610.778,571.196 "/>
<path clip-path="url(#clip990)" d="M494.295 215.402 L690.156 215.402 L690.156 111.722 L494.295 111.722  Z" fill="#ffffff" fill-rule="evenodd" fill-opacity="1"/>
<polyline clip-path="url(#clip990)" style="stroke:#000000; stroke-linecap:round; stroke-linejoin:round; stroke-width:4; stroke-opacity:1; fill:none" points="494.295,215.402 690.156,215.402 690.156,111.722 494.295,111.722 494.295,215.402 "/>
<polyline clip-path="url(#clip990)" style="stroke:#ff0000; stroke-linecap:round; stroke-linejoin:round; stroke-width:20; stroke-opacity:1; fill:none" points="499.413,163.562 530.124,163.562 "/>
<path clip-path="url(#clip990)" d="M562.155 160.498 Q562.108 160.732 562.014 161.154 Q561.92 161.552 561.499 162.817 Q561.077 164.082 560.515 165.37 Q559.976 166.635 558.922 168.415 Q557.892 170.172 556.627 171.764 Q556.275 172.186 556.205 172.444 Q556.158 172.678 556.158 173.451 Q556.158 178.323 557.634 178.323 Q557.704 178.323 557.821 178.323 Q557.962 178.299 558.313 178.182 Q558.688 178.042 559.016 177.831 Q559.344 177.597 559.719 177.128 Q560.093 176.636 560.328 175.98 Q560.538 175.512 560.96 175.512 Q561.522 175.512 561.522 175.98 Q561.522 176.824 560.351 178.112 Q559.18 179.4 557.493 179.4 Q555.877 179.4 554.73 178.346 Q553.605 177.269 553.137 175.348 Q548.078 179.4 543.018 179.4 Q539.458 179.4 537.35 177.081 Q535.242 174.739 535.242 171.272 Q535.242 167.947 537.069 164.784 Q538.919 161.622 541.918 159.655 Q544.939 157.664 548.148 157.664 Q549.272 157.664 550.35 157.969 Q551.427 158.25 552.504 158.976 Q553.582 159.702 554.378 160.803 Q555.175 161.904 555.667 163.637 Q556.158 165.37 556.158 167.548 L556.158 170.523 Q559.25 166.611 560.866 161.013 Q561.101 160.17 561.241 160.077 Q561.335 160.006 561.569 160.006 Q561.803 160.006 561.944 160.147 Q562.108 160.264 562.131 160.381 L562.155 160.498 M552.95 174.107 Q552.856 173.287 552.856 168.743 Q552.856 167.876 552.856 167.408 Q552.856 166.916 552.809 165.979 Q552.762 165.042 552.668 164.457 Q552.598 163.871 552.434 163.028 Q552.27 162.185 552.036 161.646 Q551.802 161.107 551.427 160.498 Q551.076 159.889 550.607 159.538 Q550.162 159.187 549.506 158.952 Q548.874 158.718 548.101 158.718 Q547.141 158.718 546.134 159.069 Q545.15 159.397 543.885 160.451 Q542.62 161.482 541.566 163.121 Q540.465 164.855 539.622 168.04 Q538.802 171.202 538.802 173.099 Q538.802 175.489 539.903 176.917 Q541.004 178.323 543.112 178.323 Q548.148 178.323 552.95 174.107 Z" fill="#000000" fill-rule="nonzero" fill-opacity="1" /><path clip-path="url(#clip990)" d="M578.94 171.577 Q578.987 170.991 579.9 170.991 L609.295 170.991 Q610.677 170.991 610.701 171.53 Q610.701 172.116 609.389 172.092 L580.228 172.092 Q578.94 172.116 578.94 171.577 M578.94 162.208 Q578.94 161.622 579.947 161.646 L609.248 161.646 Q610.677 161.646 610.701 162.208 Q610.701 162.747 609.483 162.747 L579.9 162.747 Q578.94 162.747 578.94 162.208 Z" fill="#000000" fill-rule="nonzero" fill-opacity="1" /><path clip-path="url(#clip990)" d="M629.203 151.481 L629.203 149.981 Q634.965 149.981 637.939 146.913 Q638.759 146.913 638.9 147.101 Q639.04 147.288 639.04 148.155 L639.04 175.067 Q639.04 176.496 639.743 176.941 Q640.445 177.386 643.514 177.386 L645.036 177.386 L645.036 178.861 Q643.35 178.721 637.26 178.721 Q631.17 178.721 629.507 178.861 L629.507 177.386 L631.03 177.386 Q634.051 177.386 634.777 176.964 Q635.503 176.519 635.503 175.067 L635.503 150.216 Q632.997 151.481 629.203 151.481 Z" fill="#000000" fill-rule="nonzero" fill-opacity="1" /><path clip-path="url(#clip990)" d="M648.809 178.088 Q648.083 177.315 648.083 176.308 Q648.083 175.301 648.809 174.575 Q649.535 173.826 650.636 173.826 Q651.69 173.826 652.393 174.528 Q653.119 175.207 653.119 176.332 Q653.119 177.433 652.346 178.159 Q651.596 178.861 650.636 178.861 Q649.535 178.861 648.809 178.088 Z" fill="#000000" fill-rule="nonzero" fill-opacity="1" /><path clip-path="url(#clip990)" d="M661.283 171.132 Q661.283 169.703 662.056 169.164 Q662.829 168.602 663.648 168.602 Q664.749 168.602 665.382 169.305 Q666.038 169.984 666.038 170.945 Q666.038 171.905 665.382 172.608 Q664.749 173.287 663.648 173.287 Q663.11 173.287 662.829 173.193 Q663.461 175.395 665.382 176.988 Q667.326 178.58 669.879 178.58 Q673.088 178.58 675.008 175.465 Q676.156 173.451 676.156 168.883 Q676.156 164.855 675.289 162.84 Q673.954 159.772 671.214 159.772 Q667.326 159.772 665.03 163.121 Q664.749 163.543 664.421 163.567 Q663.953 163.567 663.836 163.309 Q663.742 163.028 663.742 162.302 L663.742 148.108 Q663.742 146.96 664.211 146.96 Q664.398 146.96 664.796 147.101 Q667.818 148.436 671.167 148.459 Q674.61 148.459 677.702 147.054 Q677.936 146.913 678.077 146.913 Q678.545 146.913 678.569 147.452 Q678.569 147.639 678.17 148.201 Q677.796 148.74 676.976 149.466 Q676.156 150.169 675.102 150.848 Q674.048 151.527 672.502 151.996 Q670.98 152.441 669.293 152.441 Q667.279 152.441 665.218 151.808 L665.218 161.154 Q667.701 158.718 671.308 158.718 Q675.149 158.718 677.796 161.81 Q680.442 164.902 680.442 169.211 Q680.442 173.732 677.304 176.824 Q674.189 179.915 669.973 179.915 Q666.131 179.915 663.695 177.175 Q661.283 174.435 661.283 171.132 Z" fill="#000000" fill-rule="nonzero" fill-opacity="1" /></svg>
